<svg width="80" height="80" fill="none" xmlns="http://www.w3.org/2000/svg"><g fill="#192266"><path fill-rule="evenodd" clip-rule="evenodd" d="M42.084 45.103c-5.852 4.385-14.198 3.917-19.517-1.402-5.832-5.832-5.832-15.302 0-21.134 5.832-5.832 15.302-5.832 21.134 0 5.32 5.32 5.787 13.665 1.402 19.517L58.188 55.17a1.068 1.068 0 0 1 0 1.51l-1.51 1.509a1.068 1.068 0 0 1-1.51 0L42.085 45.103ZM25.002 25.002c4.488-4.488 11.776-4.488 16.264 0 4.488 4.488 4.488 11.776 0 16.264-4.488 4.488-11.776 4.488-16.264 0-4.488-4.488-4.488-11.776 0-16.264Z" /></g></svg>