<svg width="80" height="80" fill="none" xmlns="http://www.w3.org/2000/svg"><g fill="#218377"><path fill-rule="evenodd" clip-rule="evenodd" d="M40 16c-13.246 0-24 10.754-24 24s10.754 24 24 24 24-10.754 24-24-10.754-24-24-24Zm0 2.717c11.746 0 21.283 9.537 21.283 21.283S51.746 61.283 40 61.283 18.717 51.746 18.717 40 28.254 18.717 40 18.717Z"/><path fill-rule="evenodd" clip-rule="evenodd" d="M40 25.057c-8.247 0-14.943 6.696-14.943 14.943 0 8.248 6.696 14.944 14.943 14.944 8.248 0 14.944-6.696 14.944-14.944 0-8.247-6.696-14.943-14.944-14.943Zm0 2.717c6.748 0 12.227 5.478 12.227 12.226 0 6.748-5.479 12.227-12.227 12.227S27.774 46.748 27.774 40 33.252 27.774 40 27.774Z"/><path d="M40 45.434a5.434 5.434 0 1 0 0-10.868 5.434 5.434 0 0 0 0 10.868Z"/><path fill-rule="evenodd" clip-rule="evenodd" d="m40.168 40.757 26.724-22.43 5.979 9.322-32.703 13.108Z"/></g></svg>