<?xml version="1.0" encoding="UTF-8" standalone="no"?>
<!DOCTYPE svg PUBLIC "-//W3C//DTD SVG 1.1//EN" "http://www.w3.org/Graphics/SVG/1.1/DTD/svg11.dtd">
<svg width="100%" height="100%" viewBox="0 0 64 64" version="1.1" xmlns="http://www.w3.org/2000/svg" xmlns:xlink="http://www.w3.org/1999/xlink" xml:space="preserve" xmlns:serif="http://www.serif.com/" style="fill-rule:evenodd;clip-rule:evenodd;stroke-linejoin:round;stroke-miterlimit:2;">
    <rect id="kategoria01" x="0" y="0" width="64" height="64" style="fill:none;"/>
    <g id="kategoria011" serif:id="kategoria01">
        <g id="Warstwa-1" serif:id="Warstwa 1">
            <g transform="matrix(1,0,0,1,25.9503,18.9187)">
                <path d="M0,-3.166C-0.405,-6.168 -3.166,-8.273 -6.168,-7.869C-8.948,-7.494 -10.956,-5.098 -10.916,-2.362C-11.111,-2.368 -11.31,-2.362 -11.51,-2.335C-13.491,-2.068 -14.88,-0.245 -14.614,1.736C-14.346,3.718 -12.524,5.107 -10.542,4.84C-9.196,4.658 -8.123,3.756 -7.658,2.575C-6.761,2.974 -5.747,3.143 -4.703,3.001C-1.701,2.597 0.404,-0.164 0,-3.166" style="fill-rule:nonzero;"/>
            </g>
            <g transform="matrix(1,0,0,1,54.7866,16.1533)">
                <path d="M0,1.666C2.438,-3.23 0.447,-9.176 -4.45,-11.615C-7.606,-13.188 -11.196,-12.909 -14.004,-11.207C-14.116,-11.269 -14.222,-11.337 -14.337,-11.395C-18.096,-13.266 -22.658,-11.738 -24.531,-7.98C-26.402,-4.222 -24.874,0.341 -21.115,2.213C-20.711,2.416 -20.293,2.568 -19.873,2.694C-20.186,3.081 -20.471,3.499 -20.703,3.964C-22.403,7.379 -21.014,11.529 -17.598,13.23C-14.182,14.932 -10.032,13.542 -8.331,10.126C-7.841,9.143 -7.637,8.103 -7.632,7.076C-4.457,6.672 -1.535,4.746 0,1.666" style="fill-rule:nonzero;"/>
            </g>
            <g transform="matrix(1,0,0,1,18.207,43.994)">
                <path d="M0,-5.698C0,-7.787 1.71,-9.497 3.799,-9.497C5.888,-9.497 7.598,-7.787 7.598,-5.698L0,-5.698ZM-15.195,-1.899L-9.497,-1.899L-9.497,13.296L0,13.296L0,1.899L7.598,1.899L7.598,13.296L17.095,13.296L17.095,-1.899L22.793,-1.899L3.799,-18.994L-3.798,-12.157L-3.798,-17.095L-9.497,-17.095L-9.497,-7.028L-15.195,-1.899Z" style="fill-rule:nonzero;"/>
            </g>
        </g>
    </g>
</svg>
