<?xml version="1.0" encoding="UTF-8" standalone="no"?>
<!DOCTYPE svg PUBLIC "-//W3C//DTD SVG 1.1//EN" "http://www.w3.org/Graphics/SVG/1.1/DTD/svg11.dtd">
<svg width="100%" height="100%" viewBox="0 0 64 64" version="1.1" xmlns="http://www.w3.org/2000/svg" xmlns:xlink="http://www.w3.org/1999/xlink" xml:space="preserve" xmlns:serif="http://www.serif.com/" style="fill-rule:evenodd;clip-rule:evenodd;stroke-linejoin:round;stroke-miterlimit:2;">
    <g transform="matrix(1,0,0,1,-216,0)">
        <g id="kategoria04" transform="matrix(1,0,0,1,216,0)">
            <rect x="0" y="0" width="64" height="64" style="fill:none;"/>
            <g id="Warstwa-1" serif:id="Warstwa 1">
            </g>
            <g id="Icon-Cat-04">
                <g id="composed">
                    <g transform="matrix(0.88264,0,0,0.88264,-186.337,0.896499)">
                        <path d="M259.917,51.807C258.354,52.577 256.678,53.076 254.928,53.257L254.928,53.333L236.072,53.333C226.479,53.333 218.691,43.774 218.691,32C218.691,20.226 226.479,10.667 236.072,10.667L254.928,10.667L254.928,10.743C263.831,11.663 270.833,20.836 270.833,32C270.833,33.948 270.62,35.836 270.22,37.631C269.307,36.948 268.319,36.34 267.256,35.825C267.482,34.594 267.601,33.314 267.601,32C267.601,22.416 261.261,14.634 253.453,14.634C245.644,14.634 239.305,22.416 239.305,32C239.305,41.584 245.644,49.366 253.453,49.366C254.436,49.366 255.396,49.242 256.322,49.007C257.945,49.619 259.061,50.636 259.917,51.807Z"/>
                    </g>
                    <g transform="matrix(1,0,0,1,-216,0)">
                        <path d="M272.232,42.659C274.49,48.32 273.238,54.232 268.16,53.649C260.989,54.132 264.239,41.628 252.608,41.628C251.541,41.628 251.207,41.66 249.907,41.681C247.405,39.561 244.686,36.353 243.97,32.618C247.993,32.64 252.907,32.76 258.728,32.898C263.329,33.007 266.883,35.086 269.331,37.892L268.019,40.667L272.232,42.659ZM270.187,49.203L267.442,50.794L265.851,48.049L268.596,46.458L270.187,49.203ZM269.331,37.892L270.34,35.757L275.249,38.077L272.928,42.988L272.232,42.659C271.567,40.991 270.597,39.345 269.331,37.892ZM261.259,37.108L264.451,36.833L264.726,40.025L261.535,40.301L261.259,37.108ZM230.123,35.183C230.117,35.133 230.115,35.083 230.115,35.034C230.115,34.985 230.117,34.937 230.123,34.89L230.123,35.183Z"/>
                    </g>
                </g>
            </g>
        </g>
    </g>
</svg>
