<?xml version="1.0" encoding="UTF-8" standalone="no"?>
<!DOCTYPE svg PUBLIC "-//W3C//DTD SVG 1.1//EN" "http://www.w3.org/Graphics/SVG/1.1/DTD/svg11.dtd">
<svg width="100%" height="100%" viewBox="0 0 64 64" version="1.1" xmlns="http://www.w3.org/2000/svg" xmlns:xlink="http://www.w3.org/1999/xlink" xml:space="preserve" xmlns:serif="http://www.serif.com/" style="fill-rule:evenodd;clip-rule:evenodd;stroke-linejoin:round;stroke-miterlimit:2;">
    <g transform="matrix(1,0,0,1,-72,0)">
        <g id="kategoria02" transform="matrix(1,0,0,1,72,0)">
            <rect x="0" y="0" width="64" height="64" style="fill:none;"/>
            <g id="Warstwa-1" serif:id="Warstwa 1">
                <g transform="matrix(1,0,0,1,30.4678,51.9802)">
                    <path d="M0,-22.613C-2.598,-21.871 -6.03,-21.462 -9.665,-21.462C-13.299,-21.462 -16.731,-21.871 -19.33,-22.613C-20.575,-22.969 -21.577,-23.386 -22.332,-23.862L-17.84,-2.525C-17.84,-0.441 -14.18,1.249 -9.665,1.249C-5.15,1.249 -1.489,-0.441 -1.489,-2.525L3.003,-23.862C2.247,-23.386 1.246,-22.969 0,-22.613" style="fill-rule:nonzero;"/>
                </g>
                <g transform="matrix(-0.535907,-0.844277,-0.844277,0.535907,7.51836,12.9137)">
                    <path d="M-11.15,-20.284C-13.234,-20.284 -14.923,-14.371 -14.924,-7.077C-14.923,0.216 -13.235,6.129 -11.15,6.129C-9.066,6.129 -7.377,0.217 -7.377,-7.078C-7.377,-14.371 -9.065,-20.284 -11.15,-20.284" style="fill-rule:nonzero;"/>
                </g>
                <g transform="matrix(-0.924993,0.379984,0.379984,0.924993,24.9524,29.9588)">
                    <rect x="-2.25" y="-2.908" width="2.824" height="2.464"/>
                </g>
                <g transform="matrix(-0.636634,-0.771166,-0.771166,0.636634,25.8559,20.1173)">
                    <rect x="-4.143" y="-1.489" width="3.442" height="3.442"/>
                </g>
                <g transform="matrix(-0.899712,-0.436484,-0.436484,0.899712,16.6078,27.3483)">
                    <rect x="-3.538" y="-2.217" width="3.029" height="3.029"/>
                </g>
                <g transform="matrix(-0.89965,-0.436613,-0.436613,0.89965,27.5858,26.1758)">
                    <rect x="-2.873" y="-1.799" width="2.46" height="2.46"/>
                </g>
                <g transform="matrix(-0.924962,0.380059,0.380059,0.924962,22.742,26.5695)">
                    <rect x="-2.193" y="-3.272" width="2.839" height="2.839"/>
                </g>
                <g transform="matrix(-0.924965,0.380052,0.380052,0.924965,43.4463,50.9901)">
                    <rect x="-3.899" y="-5.815" width="5.046" height="5.046"/>
                </g>
                <g transform="matrix(-0.899683,-0.436545,-0.436545,0.899683,47.929,48.0397)">
                    <rect x="-6.764" y="-4.236" width="5.791" height="5.791"/>
                </g>
                <g transform="matrix(-0.899564,-0.436789,-0.436789,0.899564,31.9076,47.0983)">
                    <rect x="-5.618" y="-3.518" width="4.808" height="4.811"/>
                </g>
                <g transform="matrix(-0.899649,-0.436613,-0.436613,0.899649,44.6365,39.6466)">
                    <rect x="-5.482" y="-3.434" width="4.693" height="4.694"/>
                </g>
                <g transform="matrix(-0.924969,0.380043,0.380043,0.924969,37.2263,34.1303)">
                    <rect x="-2.472" y="-3.693" width="3.203" height="3.204"/>
                </g>
                <g transform="matrix(0.137381,-0.990518,-0.990518,-0.137381,44.4516,27.0512)">
                    <rect x="-2.698" y="0.186" width="2.912" height="2.911"/>
                </g>
                <g transform="matrix(0.830263,-0.557371,-0.557371,-0.830263,39.988,43.8028)">
                    <rect x="-1.819" y="0.97" width="5.004" height="5.005"/>
                </g>
                <g transform="matrix(0.83021,-0.557451,-0.557451,-0.83021,45.0653,37.9713)">
                    <rect x="-1.523" y="0.812" width="4.19" height="4.19"/>
                </g>
                <g transform="matrix(0.675539,-0.737324,-0.737324,-0.675539,49.1624,32.318)">
                    <rect x="-1.684" y="0.654" width="3.172" height="3.172"/>
                </g>
            </g>
        </g>
    </g>
</svg>
